<?xml version="1.0" standalone="no"?>
<!DOCTYPE svg PUBLIC "-//W3C//DTD SVG 20010904//EN"
 "http://www.w3.org/TR/2001/REC-SVG-20010904/DTD/svg10.dtd">
<svg version="1.0" xmlns="http://www.w3.org/2000/svg"
 width="512.000000pt" height="512.000000pt" viewBox="0 0 512.000000 512.000000"
 preserveAspectRatio="xMidYMid meet">
<metadata>
Created by potrace 1.14, written by Peter Selinger 2001-2017
</metadata>
<g transform="translate(0.000000,512.000000) scale(0.100000,-0.100000)"
fill="#000000" stroke="none">
<path d="M2504 5108 c-31 -54 -579 -612 -794 -809 -58 -53 -117 -107 -131
-120 -27 -24 -124 -110 -165 -146 -12 -10 -46 -39 -75 -65 -95 -82 -104 -89
-124 -106 -282 -237 -410 -377 -550 -603 -110 -177 -226 -452 -260 -614 -7
-32 -35 -175 -40 -200 -19 -109 -26 -401 -12 -525 19 -169 50 -309 102 -465
51 -152 26 -100 540 -1160 56 -116 110 -229 121 -253 l19 -44 480 5 c264 3
491 7 505 10 14 3 61 8 105 12 44 3 94 8 110 11 17 2 47 6 68 9 270 32 648
136 892 243 315 139 563 308 785 537 71 73 93 98 168 191 13 16 57 79 97 139
183 276 316 618 381 985 2 14 6 34 9 45 4 18 6 37 20 150 25 203 25 714 1 842
-3 11 -7 44 -10 74 -3 30 -8 72 -11 94 -6 43 -51 303 -61 345 -3 14 -17 86
-31 160 -14 74 -30 137 -35 138 -4 2 -6 8 -3 12 3 5 -27 -5 -67 -21 -40 -17
-120 -48 -178 -70 -58 -22 -114 -44 -125 -49 -78 -36 -790 -270 -822 -270 -5
0 -17 24 -25 53 -48 160 -169 429 -288 642 -104 184 -209 340 -397 590 -196
261 -188 252 -199 233z"/>
</g>
</svg>
